 <svg  version="1.0" xmlns="http://www.w3.org/2000/svg"  width="300.000000pt" height="300.000000pt" viewBox="0 0 300.000000 300.000000"  preserveAspectRatio="xMidYMid meet">  <g transform="translate(0.000000,300.000000) scale(0.100000,-0.100000)" fill="#000000" stroke="none"> <path d="M1255 2600 c-50 -11 -95 -39 -115 -73 -20 -33 -26 -92 -12 -115 5 -7 7 -26 4 -42 -3 -23 -9 -30 -27 -30 -27 0 -37 -35 -40 -150 -1 -55 -9 -93 -28 -141 -15 -36 -27 -69 -27 -73 0 -4 16 -14 35 -22 31 -12 35 -19 35 -49 0 -32 2 -35 30 -35 25 0 29 3 21 18 -34 66 -35 73 -21 82 8 6 40 10 70 10 119 0 222 46 305 136 45 48 85 66 85 38 0 -9 -11 -40 -25 -69 -14 -28 -30 -80 -35 -116 -22 -139 -53 -177 -189 -233 -77 -31 -122 -40 -157 -32 -25 7 -25 8 -22 81 2 62 0 75 -12 75 -30 0 -43 -16 -31 -37 6 -12 8 -42 4 -70 -5 -46 -3 -51 22 -71 15 -12 40 -22 55 -22 73 0 263 83 309 136 22 24 32 51 45 125 18 100 43 179 57 179 5 0 9 8 9 18 0 20 24 45 53 55 21 8 57 -25 57 -50 -1 -60 -91 -163 -142 -163 -10 0 -18 -7 -18 -15 0 -23 35 -18 68 10 l30 25 12 -35 c12 -36 69 -105 87 -105 5 0 10 13 10 28 0 16 12 45 26 64 41 54 68 124 70 183 2 62 9 68 27 26 9 -22 9 -34 0 -51 -14 -26 -5 -38 18 -24 22 15 36 55 29 85 -8 30 -45 71 -58 64 -9 -6 -14 28 -10 76 1 15 -10 51 -24 82 -14 31 -25 59 -25 64 0 18 -64 84 -104 108 -82 48 -122 57 -276 59 -80 1 -158 -1 -175 -4z m300 -30 c13 -6 -6 -9 -60 -9 -44 0 -87 4 -95 9 -19 12 126 12 155 0z m-186 -14 c26 -10 77 -15 143 -14 57 1 114 -4 128 -9 19 -8 4 -10 -65 -7 l-90 3 68 -9 c38 -5 82 -13 99 -19 38 -13 41 -14 33 -1 -12 20 14 9 43 -18 30 -28 92 -140 92 -166 0 -20 -12 -26 -62 -32 -84 -9 -94 -10 -103 -16 -6 -3 -24 -9 -42 -12 -25 -6 -32 -4 -35 11 -3 10 2 30 9 46 13 26 12 28 -12 37 -15 6 -43 10 -63 9 l-37 -1 45 -11 c40 -11 45 -15 41 -37 -1 -14 -12 -43 -22 -64 -10 -22 -17 -42 -14 -44 3 -3 5 -1 5 5 0 5 37 15 83 22 45 7 110 19 145 28 60 15 86 13 66 -6 -15 -15 -172 -52 -247 -58 -61 -5 -69 -9 -82 -33 -20 -38 -90 -99 -140 -121 -27 -12 -85 -23 -152 -28 -59 -5 -121 -14 -137 -20 -16 -6 -30 -10 -32 -9 -1 2 11 38 28 81 22 57 28 84 21 99 -5 12 -4 46 2 86 l11 67 65 6 c35 4 107 7 160 8 81 1 99 4 113 20 17 19 17 19 -6 15 -21 -5 -21 -4 -4 6 24 16 122 9 163 -12 27 -13 88 -16 100 -4 7 7 -61 44 -92 51 -23 5 -20 2 14 -14 24 -12 41 -24 38 -27 -3 -3 -20 2 -39 12 -36 20 -142 25 -193 10 -29 -8 -29 -8 -10 7 20 16 20 16 0 17 -18 1 -17 2 5 15 34 19 151 19 197 0 20 -9 52 -27 71 -41 l34 -26 -18 33 c-10 19 -17 39 -16 45 3 16 -67 34 -130 34 -58 0 -149 -22 -186 -46 -19 -13 -21 -18 -11 -37 7 -12 19 -27 28 -34 13 -10 -9 -12 -111 -13 -119 0 -126 1 -121 19 3 12 17 21 38 25 18 4 82 30 142 58 99 47 114 52 178 51 61 0 122 -11 171 -30 8 -3 14 -1 14 5 0 42 -352 46 -433 5 -16 -8 -31 -13 -33 -10 -8 8 45 37 83 46 l38 9 -38 1 c-42 1 -69 -10 -106 -43 l-24 -21 6 25 c6 24 5 24 -8 6 -8 -11 -15 -28 -15 -38 0 -10 -4 -18 -10 -18 -14 0 -12 40 4 69 34 61 129 87 215 57z m467 -355 c8 -10 7 -25 -2 -55 -7 -22 -19 -61 -26 -86 -13 -46 -65 -131 -83 -137 -6 -2 -18 9 -27 25 -16 26 -15 29 14 82 26 47 29 62 25 103 -6 47 -6 48 31 66 43 21 53 21 68 2z"/> <path d="M1442 2333 c-22 -9 -2 -23 33 -23 40 0 54 15 22 24 -25 7 -37 7 -55 -1z"/> <path d="M1154 2200 c-29 -11 -39 -29 -25 -43 6 -6 11 -19 11 -29 0 -31 81 -24 163 14 l69 32 -84 17 c-94 20 -105 21 -134 9z"/> <path d="M1876 2353 c9 -36 5 -33 56 -44 35 -8 203 -74 217 -85 2 -2 -6 -15 -17 -29 -68 -86 -8 -215 99 -215 l37 0 7 -107 c7 -117 -6 -298 -30 -416 -25 -118 -21 -114 -70 -68 -64 59 -157 125 -242 172 -72 40 -78 41 -112 29 -54 -19 -161 -84 -206 -125 l-40 -36 70 38 c147 78 178 93 199 93 30 0 183 -93 273 -167 43 -34 85 -63 93 -64 19 0 82 -86 70 -94 -6 -3 -18 -8 -27 -9 -10 -2 -36 -6 -58 -10 -59 -10 -167 -36 -190 -45 -11 -5 -54 -21 -95 -36 -41 -15 -117 -49 -169 -76 -107 -56 -115 -54 -125 19 -3 26 -13 58 -22 70 -19 28 -65 52 -99 52 -56 0 -115 -58 -115 -114 0 -45 -20 -76 -50 -76 -15 0 -54 -18 -88 -40 -63 -41 -79 -39 -67 7 11 44 62 109 185 232 180 182 198 215 47 87 -92 -80 -185 -189 -229 -271 -17 -33 -33 -54 -36 -47 -6 20 63 133 133 214 36 42 102 104 146 137 78 59 89 77 29 46 -19 -10 -30 -12 -30 -4 0 40 318 399 354 399 13 0 46 -81 46 -112 0 -7 -33 -30 -74 -51 -67 -34 -176 -126 -176 -149 0 -5 21 9 48 31 65 55 156 108 219 128 29 9 53 20 53 23 0 4 -9 15 -20 25 -27 25 -52 111 -44 153 l7 35 -33 -19 c-18 -11 -75 -57 -128 -104 -137 -124 -172 -153 -172 -144 0 4 8 16 17 27 10 11 -23 -2 -81 -32 -98 -50 -140 -65 -101 -35 11 8 62 36 114 62 59 29 115 67 150 100 54 51 55 52 21 39 -19 -8 -97 -43 -173 -77 -114 -53 -137 -67 -134 -82 6 -22 -9 -24 -17 -2 -3 9 -6 17 -6 20 0 6 84 46 260 124 165 73 234 110 180 95 -26 -7 -281 -118 -402 -175 -56 -26 -66 -35 -59 -48 7 -12 -3 -29 -42 -72 -28 -30 -64 -85 -82 -122 -28 -62 -32 -66 -47 -52 -14 15 -16 11 -23 -46 -11 -93 3 -204 36 -290 16 -41 32 -95 36 -120 5 -40 4 -43 -10 -30 -20 20 -165 352 -296 675 -11 28 -20 45 -20 40 -1 -6 26 -80 60 -164 58 -149 74 -214 32 -135 -12 21 -37 68 -57 104 -107 192 -135 273 -100 287 10 4 22 0 29 -10 10 -15 12 -13 11 13 -1 28 -4 30 -37 30 -20 0 -42 -7 -49 -15 -21 -25 23 -140 147 -385 98 -196 119 -230 145 -241 24 -10 39 -32 79 -116 27 -56 55 -103 62 -103 7 0 17 8 23 17 6 10 44 40 84 67 65 45 73 48 82 32 9 -17 11 -17 30 1 30 27 48 67 48 106 0 70 68 114 129 83 32 -17 36 -26 46 -98 6 -45 36 -98 56 -98 6 0 25 11 43 25 18 13 75 45 127 69 166 79 335 127 508 144 l74 7 -64 54 -65 53 23 89 c12 50 27 127 33 172 11 89 12 319 2 407 l-7 54 -50 -3 c-39 -2 -57 3 -78 19 -38 30 -37 86 1 132 15 18 30 35 35 36 18 9 1 22 -85 65 -86 42 -171 75 -241 91 -26 6 -27 5 -21 -21z m-332 -775 c-68 -73 -205 -239 -288 -351 -15 -21 -52 -80 -82 -130 -58 -97 -66 -101 -34 -14 41 110 236 358 399 508 41 38 77 69 79 69 2 0 -31 -37 -74 -82z m-245 -37 c7 -5 10 -14 7 -20 -4 -6 -12 -9 -17 -6 -5 4 -9 4 -9 1 0 -2 -3 -12 -6 -20 -5 -12 -2 -15 11 -10 13 5 16 3 13 -7 -3 -8 -13 -14 -24 -14 -14 0 -19 8 -21 34 -4 43 16 61 46 42z m111 -17 c-25 -13 -34 -22 -20 -18 22 6 23 5 11 -10 -17 -21 -61 -21 -61 -1 0 9 19 25 43 35 61 28 80 24 27 -6z m-30 -61 c0 -5 -4 -14 -8 -21 -7 -9 -13 -8 -27 8 -18 20 -18 20 8 20 15 0 27 -3 27 -7z m-96 -21 c6 -10 -29 -125 -45 -150 -19 -30 0 66 22 111 15 32 16 37 3 22 -22 -27 -69 -130 -83 -181 -6 -23 -21 -64 -34 -90 l-22 -49 -3 40 c-5 52 12 106 55 180 36 62 83 123 95 124 4 1 9 -3 12 -7z"/> <path d="M970 2337 c-47 -18 -113 -50 -148 -71 -52 -31 -60 -40 -48 -50 25 -20 66 -88 66 -111 0 -31 -35 -72 -68 -79 -15 -4 -41 -2 -58 3 l-32 9 -6 -51 c-7 -46 -5 -53 16 -69 23 -17 23 -17 28 19 5 34 7 35 46 37 80 4 130 63 121 144 -3 24 -15 57 -26 73 l-22 30 73 33 c40 18 84 36 97 41 17 5 20 10 12 18 -18 18 -13 26 22 41 61 27 12 15 -73 -17z"/> <path d="M1621 2124 c-13 -17 -19 -35 -15 -48 3 -14 -1 -28 -10 -35 -23 -19 -20 -34 4 -21 28 15 43 46 31 68 -14 26 2 46 33 40 17 -4 25 -1 23 6 -7 23 -45 17 -66 -10z"/> <path d="M576 2003 c3 -15 10 -44 14 -63 5 -19 14 -69 20 -110 11 -64 51 -170 65 -170 5 0 -10 42 -27 73 -11 21 -58 239 -53 245 4 4 27 -63 61 -173 30 -97 45 -97 19 1 -25 91 -25 94 -9 94 8 0 14 -5 14 -11 0 -5 4 -8 8 -5 4 2 23 -20 42 -49 19 -30 38 -54 43 -55 4 0 7 -5 7 -11 0 -6 9 -22 20 -37 14 -17 17 -28 10 -32 -12 -8 32 -131 118 -332 68 -159 67 -156 81 -130 9 17 6 32 -17 84 -16 35 -66 160 -113 278 -73 187 -89 219 -124 252 -22 21 -73 69 -113 108 -64 63 -72 68 -66 43z"/> <path d="M2047 1930 c-6 -22 -43 -28 -50 -7 -7 22 -38 -13 -35 -42 3 -21 -1 -26 -19 -24 -22 2 -43 -29 -24 -35 14 -5 14 -52 0 -52 -6 0 -9 -10 -7 -22 2 -15 9 -22 20 -20 17 3 34 -30 24 -47 -3 -4 3 -16 14 -26 15 -14 23 -15 34 -6 16 14 46 4 46 -15 0 -8 9 -14 20 -14 11 0 20 6 20 14 0 19 37 31 54 17 16 -13 41 11 33 32 -3 7 1 21 9 32 8 10 14 13 14 7 0 -7 5 -12 10 -12 6 0 10 9 10 20 0 11 -4 20 -10 20 -5 0 -10 9 -10 19 0 11 5 23 10 26 18 11 11 45 -9 45 -21 0 -33 22 -25 43 3 8 -2 20 -11 27 -12 10 -18 10 -30 0 -12 -10 -18 -10 -30 0 -8 7 -15 19 -15 26 0 22 -37 16 -43 -6z m68 -44 c103 -44 71 -216 -41 -216 -127 0 -166 165 -51 215 41 18 50 18 92 1z"/> <path d="M2050 1883 c-40 -12 -60 -29 -75 -60 -41 -85 61 -178 146 -133 25 14 49 62 49 99 0 54 -71 109 -120 94z m71 -42 c37 -38 39 -82 4 -116 -65 -65 -173 9 -133 91 14 30 50 54 81 54 10 0 32 -13 48 -29z"/> <path d="M2044 1796 c-10 -26 4 -48 28 -44 17 2 23 10 23 28 0 18 -6 26 -23 28 -13 2 -25 -3 -28 -12z"/> <path d="M683 1590 c8 -95 34 -210 73 -332 34 -106 35 -107 64 -105 23 1 29 6 24 17 -28 66 -64 178 -79 240 -10 41 -24 80 -31 85 -7 6 -20 42 -29 80 -23 91 -29 96 -22 15z"/> <path d="M1456 1125 c-8 -9 -18 -32 -21 -53 -3 -20 -8 -46 -10 -58 -10 -50 -98 -121 -115 -93 -5 6 -15 9 -24 6 -14 -5 -16 -27 -16 -138 0 -130 0 -132 31 -183 35 -56 96 -137 157 -206 l40 -45 43 49 c58 65 126 152 155 198 22 35 24 47 24 183 0 147 -5 166 -38 133 -8 -8 -21 -5 -51 16 -46 32 -71 78 -71 130 0 62 -65 100 -104 61z m64 -47 c5 -13 11 -39 15 -59 6 -41 64 -114 98 -125 41 -12 57 -35 57 -82 l0 -44 -45 61 c-36 49 -51 61 -72 61 -16 1 -38 7 -51 14 -39 21 -131 -14 -168 -64 -16 -22 -32 -40 -36 -40 -5 0 -8 16 -8 35 0 32 4 37 46 56 52 25 87 71 104 139 6 25 13 51 15 58 7 20 35 14 45 -10z m-5 -195 c8 -11 25 -17 50 -16 27 1 35 -2 31 -13 -3 -7 6 -22 20 -33 14 -11 23 -25 19 -31 -3 -5 1 -13 10 -16 9 -4 12 -11 8 -18 -5 -6 -8 -29 -8 -51 0 -31 -5 -45 -27 -63 -14 -13 -25 -29 -22 -36 3 -8 -8 -12 -33 -13 -21 -1 -42 -8 -49 -17 -14 -20 -34 -21 -34 -1 0 15 -22 20 -68 16 -20 -2 -23 1 -17 19 5 16 2 23 -14 27 -23 6 -23 6 -27 43 -2 14 -6 38 -8 55 -3 16 0 35 6 42 6 8 8 16 4 20 -3 3 4 11 17 17 12 7 22 21 22 31 1 12 7 19 15 17 17 -4 70 18 70 29 0 15 22 10 35 -8z m150 -262 c-3 -12 -11 -21 -16 -21 -5 0 -9 -5 -9 -11 0 -28 -118 -169 -142 -169 -17 0 -86 81 -122 144 -29 50 -29 51 -4 28 14 -13 38 -25 53 -28 16 -3 37 -9 47 -15 14 -7 27 -6 50 5 17 9 41 16 54 16 14 0 35 15 56 39 35 42 44 45 33 12z"/> <path d="M1452 849 c-19 -7 -21 -12 -12 -29 17 -33 50 -20 41 16 -5 18 -10 20 -29 13z"/> <path d="M1510 836 c0 -30 23 -40 38 -15 12 18 10 21 -20 32 -14 5 -18 1 -18 -17z"/> <path d="M1392 800 c-17 -27 -15 -37 8 -43 25 -7 42 21 29 46 -13 22 -21 22 -37 -3z"/> <path d="M1571 806 c-25 -30 4 -59 37 -37 10 6 9 13 -5 30 -17 21 -20 21 -32 7z"/> <path d="M1480 745 c-10 -11 -10 -19 -2 -27 15 -15 44 -2 40 19 -4 23 -22 27 -38 8z"/> <path d="M1370 717 c0 -21 4 -23 25 -19 32 6 30 36 -3 40 -18 3 -22 -1 -22 -21z"/> <path d="M1580 720 c0 -11 2 -20 4 -20 2 0 11 -3 20 -6 12 -5 16 0 16 20 0 19 -5 26 -20 26 -13 0 -20 -7 -20 -20z"/> <path d="M1408 683 c-21 -5 -22 -8 -7 -34 8 -16 13 -18 25 -8 27 22 15 49 -18 42z"/> <path d="M1555 681 c-2 -5 2 -16 9 -27 12 -15 16 -16 30 -5 9 7 14 17 11 21 -7 11 -44 19 -50 11z"/> <path d="M1452 640 c-17 -27 -16 -30 14 -30 20 0 25 4 22 22 -4 29 -20 33 -36 8z"/> <path d="M1508 654 c-11 -11 5 -44 21 -44 26 0 31 10 18 31 -12 19 -28 24 -39 13z"/> <path d="M2159 1123 c-9 -2 -25 -23 -35 -46 -63 -139 -242 -370 -378 -487 -77 -66 -168 -161 -191 -199 -4 -8 33 14 84 49 202 138 404 366 516 581 58 112 58 117 4 102z"/> <path d="M860 1011 c71 -138 167 -269 285 -386 93 -93 271 -232 283 -220 3 3 -79 90 -181 194 -103 105 -187 194 -187 200 0 5 14 12 30 16 35 8 36 12 13 45 -10 14 -39 65 -65 115 -48 92 -67 113 -24 27 22 -46 47 -209 28 -187 -19 22 -101 154 -138 222 -34 63 -43 73 -67 73 l-28 0 51 -99z"/> <path d="M1968 1082 c-60 -34 -223 -240 -230 -289 -2 -18 -1 -33 3 -33 4 0 55 64 114 143 59 78 116 148 127 156 19 14 20 14 4 -24 -9 -21 -20 -43 -25 -49 -4 -6 -48 -63 -98 -126 -105 -134 -147 -199 -88 -135 85 92 209 260 227 307 28 74 22 83 -34 50z"/> <path d="M1197 841 c6 -23 -29 -45 -58 -38 -24 7 -26 -20 -1 -27 9 -3 27 -4 40 -1 12 2 20 0 17 -4 -7 -12 15 -71 26 -71 13 0 11 15 -6 57 -11 25 -12 40 -5 47 15 15 12 56 -4 56 -9 0 -12 -7 -9 -19z"/> </g> </svg> 